<?xml version="1.0" encoding="UTF-8"?>
<svg xmlns="http://www.w3.org/2000/svg" xmlns:xlink="http://www.w3.org/1999/xlink" width="648pt" height="144pt" viewBox="0 0 648 144"><!--latexit:AAAFJHjabVNbbBtFFL2zk7ZJ2sSbR9s0fW2JAyl9kLSBhpRHnKZuQxq36dqJkzg1
s+uxvfV61+yO07qWpflALULwwVchH0ASIShCvAQRIAFC0BYhFEESARIC1K/+ID4Q
CEGFxPihUlBntJr7mDv33HPvahnTcFln5wqScNWq1Wtqw95p6riGbY17iaMnDaEF
vczOhL22dprqzG0EdP7FqOwJqEM0R2O+yqWvq2uCjm0zjt6Qd6xd137nXR077961
e8/ee+49+EDfwCNDIycnJk8RGj+dzrBsyGtlTXO5rt4jt3rHAureFM25E+KsJBn1
6iZx3UsNjU3N6zdsbNnEJY55FV/FV/M1vJrX8NpLm7ds3bZd2XFHG1/L1/F67uEN
vJVv5lv5Nq6ENeJS07BoSLdN2wmm7RgNMYOZNJxxKElrJp1Kk4RlxA2dMFFuMEYY
FWVpRE8lHDtrxQ4VAydcO+voNEjPsjaorOXOLs++/d2hgHrySH8koJYuqhmiU3+n
IjbIiNct3Xeg5/6JchkWSdNwWaTuWCVgrqc3HFCPl+qVpSXPgw89PC4IcJljWAku
nxAP+PpLPA9nGRF41ZJn3neoGFdWlg97/EeODt7UBRgfE5KWZdTljXwTb4rKS5GY
rWfT1GIlBJNdnRk2lScOM3STFmojWZcK7CmSoJNCLGJ1p/Il1gpKu7DElLjtiM9i
Ssl6a0SepF03l9bEzTRhSff/vqLxdr7JLIv3TOUNKyOQWno5UTxrKsxWWC5DlZjh
CF7MnBCI7hgCq6IniUN0Jqaztjg4xwInZod58+xxvp63jAZUvwC4ogZDntGx8LjQ
VeMcFcTE/SZJuEIPiMLa+jrKLZRlvoFvHB22LaLbgunIVOWFuUivUKOPCiYHDL04
GMTJzUWLRk2Pyo23EBwrcz4X672tva1PK+daSniSRnHGmSEQ+K5emfnt/d0LfIt4
MmWKtANi8OZSvcWpsvZ3+7sUsYHXFXv72NFBvr3cxSFvpMiiFs+XTy0/UoikjVhJ
04mZHy5EpolDM65h2lbJGndIKu8WIkmNOBGHWAnRbm+tWCLz9Jmo3HRztP4tdX46
2gvV0ACt4IWdsA8OwCAcgxFQ4QwU4HF4Ci7C8/AKvAqvwevwJrwN78ACvAcfwGdw
BT6HL+BLWISvYAlW4Bv4Dq7BdfgZfoUbqAbVIwXtQt3oIPKhAAqhMTSOTiEDOegc
KqDz6An0NLqInkMz6AX0FnoXfYQuo0X0PfoB/YSuSQvSh9LH0ifSp9Jl6aq0KH0r
/Shdl36R/pD+lG5If+MqXINl3IRbcDvuwHtwPz6MJ7COkziDcziPOb6An8TP4Gfx
DJ7F8/gl/DL+Hf9VJZfbJKHK730W/rOqmv8B8EutMg==-->
<defs>
<g>
<g id="glyph-0-0">
<path d="M 68.578125 1.296875 C 88.8125 -2.875 106.890625 -18.9375 106.890625 -49.0625 C 106.890625 -85.21875 81.484375 -101 55.8125 -101 C 29.546875 -101 4.734375 -84.5 4.734375 -49.203125 C 4.734375 -18.5 23.09375 -3.875 40.03125 0.578125 C 46.484375 15.34375 60.6875 25.6875 78.484375 25.6875 C 85.65625 25.6875 93.546875 24.25 101 21.375 C 103.578125 20.375 105.015625 19.796875 105.015625 18.078125 C 105.015625 16.359375 103.734375 15.5 102.578125 15.5 C 102.296875 15.5 102.15625 15.5 101.140625 15.78125 C 97.125 16.78125 95.546875 16.78125 93.25 16.78125 C 80.0625 16.78125 71.875 8.46875 68.578125 1.296875 Z M 36.015625 -91.96875 C 27.265625 -81.78125 24.96875 -64.984375 24.96875 -49.203125 C 24.96875 -35.15625 26.6875 -17.21875 36.15625 -6.03125 C 26.25 -9.75 9.75 -21.234375 9.75 -49.0625 C 9.75 -78.328125 27.546875 -88.953125 35.875 -92.109375 Z M 75.75 -92.109375 C 85.359375 -88.515625 101.859375 -77.046875 101.859375 -49.203125 C 101.859375 -19.9375 84.078125 -9.328125 75.46875 -6.03125 C 84.359375 -16.5 86.65625 -33.28125 86.65625 -49.0625 C 86.65625 -63.125 84.9375 -81.0625 75.609375 -91.96875 Z M 55.8125 -2.296875 C 32.5625 -2.296875 29.984375 -32.703125 29.984375 -49.0625 C 29.984375 -66.28125 32.859375 -95.984375 55.8125 -95.984375 C 79.046875 -95.984375 81.640625 -65.5625 81.640625 -49.203125 C 81.640625 -32 78.765625 -2.296875 55.8125 -2.296875 Z M 46.34375 2.015625 C 50.359375 2.71875 55.671875 2.71875 55.8125 2.71875 C 56.53125 2.71875 59.546875 2.71875 63.5625 2.296875 C 67.4375 11.328125 74.171875 16.78125 81.34375 19.65625 C 82.78125 20.234375 82.921875 20.234375 82.921875 20.375 C 82.921875 20.65625 80.34375 20.65625 78.484375 20.65625 C 66.28125 20.65625 53.796875 14.921875 46.34375 2.015625 Z M 46.34375 2.015625 "/>
</g>
<g id="glyph-1-0">
<path d="M 22.8125 -102.4375 C 22.8125 -105.015625 22.8125 -107.609375 19.9375 -107.609375 C 17.078125 -107.609375 17.078125 -105.015625 17.078125 -102.4375 L 17.078125 30.703125 C 17.078125 33.28125 17.078125 35.875 19.9375 35.875 C 22.8125 35.875 22.8125 33.28125 22.8125 30.703125 Z M 22.8125 -102.4375 "/>
</g>
<g id="glyph-1-1">
<path d="M 55.234375 -80.203125 C 59.109375 -61.546875 65.421875 -30.84375 73.59375 -14.203125 C 76.75 -8.03125 78.328125 -4.875 79.765625 -4.875 C 80.34375 -4.875 80.625 -4.875 83.21875 -7.453125 C 94.109375 -17.9375 101.578125 -26.25 111.625 -37.734375 L 143.03125 -74.3125 C 141.03125 -62.125 135.859375 -29.84375 135.859375 -13.0625 C 135.859375 -9.1875 136.015625 -5.453125 136.4375 -1.578125 C 136.578125 0 137.15625 4.15625 143.1875 4.15625 C 149.203125 4.15625 160.109375 -2.15625 160.109375 -5.015625 C 160.109375 -5.875 159.25 -6.03125 158.8125 -6.03125 C 156.953125 -6.03125 154.078125 -4.734375 152.5 -3.734375 C 149.0625 -4.15625 148.78125 -6.453125 148.484375 -9.75 C 148.0625 -14.34375 148.0625 -18.65625 148.0625 -19.21875 C 148.0625 -35.15625 154.375 -78.625 158.53125 -96.40625 C 158.671875 -97.421875 158.8125 -97.703125 158.8125 -98.84375 C 158.8125 -99.421875 158.671875 -101 157.671875 -101 C 157.09375 -101 156.953125 -100.859375 154.234375 -97.703125 C 140.75 -81.34375 98.84375 -31.125 84.640625 -19.078125 C 81.0625 -26.6875 78.484375 -32.140625 73.453125 -52.21875 C 69.296875 -68.4375 66.859375 -80.34375 64.421875 -94.265625 C 63.984375 -96.265625 63.265625 -100.140625 63.265625 -100.421875 C 62.84375 -101.140625 62.125 -101.140625 61.6875 -101.140625 C 59.109375 -101.140625 53.078125 -97.984375 52.65625 -94.96875 C 50.9375 -82.921875 48.0625 -63.984375 38.015625 -36.578125 C 26.546875 -6.03125 23.390625 -6.03125 20.65625 -6.03125 C 18.796875 -6.03125 13.484375 -7.171875 10.328125 -10.046875 C 9.609375 -10.765625 9.328125 -10.765625 9.03125 -10.765625 C 7.03125 -10.765625 3.875 -4.296875 3.875 -0.28125 C 3.875 1 3.875 2.71875 8.46875 5.171875 C 12.046875 7.03125 15.5 7.171875 16.21875 7.171875 C 25.109375 7.171875 33.578125 -13.34375 36.4375 -20.65625 C 43.1875 -36.875 51.21875 -59.546875 55.234375 -80.203125 Z M 55.234375 -80.203125 "/>
</g>
<g id="glyph-2-0">
<path d="M 20.234375 -32.5625 C 24.96875 -30.5625 29.125 -30.5625 32.5625 -30.5625 C 36.296875 -30.5625 44.1875 -30.5625 44.1875 -35 C 44.1875 -38.453125 39.171875 -38.875 33.71875 -38.875 C 30.703125 -38.875 25.6875 -38.59375 20.375 -36.15625 C 17.078125 -37.875 14.640625 -40.609375 14.640625 -44.46875 C 14.640625 -53.234375 28.6875 -58.390625 41.609375 -58.390625 C 43.90625 -58.390625 49.0625 -58.390625 54.8125 -54.375 C 56.390625 -53.234375 56.671875 -52.9375 57.671875 -52.9375 C 59.546875 -52.9375 61.546875 -54.8125 61.546875 -56.8125 C 61.546875 -59.546875 52.796875 -64.984375 43.046875 -64.984375 C 26.546875 -64.984375 11.046875 -55.375 11.046875 -44.46875 C 11.046875 -38.3125 16.21875 -34.71875 16.78125 -34.28125 C 8.328125 -29.546875 3.734375 -21.515625 3.734375 -14.921875 C 3.734375 -5.59375 11.90625 3.15625 27.109375 3.15625 C 46.046875 3.15625 54.09375 -9.46875 54.09375 -11.625 C 54.09375 -12.484375 53.375 -13.0625 52.515625 -13.0625 C 51.796875 -13.0625 51.359375 -12.484375 51.078125 -12.046875 C 49.0625 -8.75 45.625 -3.4375 28.40625 -3.4375 C 19.65625 -3.4375 7.453125 -5.59375 7.453125 -15.78125 C 7.453125 -20.65625 11.484375 -28.265625 20.234375 -32.5625 Z M 24.96875 -34.4375 C 28.265625 -35.578125 31.28125 -35.71875 33.71875 -35.71875 C 37.296875 -35.71875 37.875 -35.578125 40.453125 -34.859375 C 38.3125 -33.859375 38.015625 -33.71875 32.5625 -33.71875 C 29.40625 -33.71875 27.6875 -33.71875 24.96875 -34.4375 Z M 24.96875 -34.4375 "/>
</g>
<g id="glyph-3-0">
<path d="M 27.546875 -35 C 26.828125 -34.71875 25.96875 -34.71875 25.109375 -34.71875 C 21.515625 -34.71875 20.515625 -43.46875 20.515625 -48.203125 C 20.515625 -51.5 20.515625 -56.8125 23.390625 -59.546875 C 27.109375 -55.953125 34.859375 -52.65625 45.1875 -52.078125 L 58.390625 -63.265625 L 57.53125 -65.5625 C 53.796875 -63.125 50.5 -61.265625 47.203125 -61.265625 C 45.765625 -61.265625 44.625 -61.546875 43.46875 -62.125 L 31.84375 -68.71875 L 10.046875 -54.09375 C 9.328125 -47.625 9.1875 -40.75 9.1875 -33.71875 C 10.90625 -30.5625 13.203125 -26.828125 15.34375 -24.109375 L 29.984375 -32.421875 C 31.703125 -33.421875 33 -33.859375 35 -33.859375 C 38.59375 -33.859375 42.46875 -30.984375 42.46875 -20.078125 C 42.46875 -15.5 42.03125 -4.875 38.734375 -4.875 C 38.453125 -4.875 38.3125 -4.875 38.15625 -5.015625 L 26.546875 -12.765625 C 23.390625 -14.78125 19.796875 -15.921875 16.21875 -15.921875 C 7.3125 -15.921875 1 -7.03125 -4.015625 -1.71875 L -2.71875 -0.4375 C 1.859375 -4.453125 5.734375 -6.75 10.046875 -6.75 C 16.0625 -6.75 23.53125 -0.4375 28.40625 4.296875 C 35.71875 -0.140625 43.609375 -3.734375 51.359375 -7.171875 C 53.078125 -13.484375 53.65625 -19.9375 53.65625 -26.546875 C 53.65625 -30.125 53.515625 -33.859375 53.234375 -37.59375 C 50.78125 -39.890625 48.34375 -42.03125 45.1875 -43.046875 Z M 27.546875 -35 "/>
</g>
<g id="glyph-4-0">
<path d="M 36.578125 -78.90625 L 64.421875 -78.90625 C 66.859375 -78.90625 68.4375 -78.90625 68.4375 -80.625 C 68.4375 -82.5 66.71875 -82.5 63.984375 -82.5 L 37.453125 -82.5 C 38.453125 -86.078125 38.453125 -86.375 39.3125 -89.953125 C 40.03125 -92.53125 41.3125 -97.5625 41.3125 -97.84375 C 41.3125 -99.140625 40.453125 -99.5625 39.3125 -99.5625 C 36.578125 -99.5625 25.25 -98.421875 21.8125 -98.125 C 20.65625 -97.984375 19.078125 -97.84375 19.078125 -95.125 C 19.078125 -93.546875 20.515625 -93.546875 22.53125 -93.546875 C 29.40625 -93.546875 29.703125 -92.53125 29.703125 -91.109375 C 29.703125 -90.09375 28.40625 -85.359375 27.6875 -82.5 L 19.65625 -82.5 C 16.78125 -82.5 15.203125 -82.5 15.203125 -80.625 C 15.203125 -78.90625 16.5 -78.90625 19.21875 -78.90625 L 26.828125 -78.90625 L 8.46875 -5.734375 C 7.890625 -3.59375 7.890625 -3.296875 7.890625 -2.4375 C 7.890625 0.71875 10.328125 1.578125 12.046875 1.578125 C 14.78125 1.578125 16.78125 -0.4375 17.359375 -2.296875 C 17.640625 -3.015625 19.21875 -9.46875 20.078125 -13.0625 L 23.390625 -25.828125 C 23.8125 -27.96875 25.25 -33.421875 25.6875 -35.578125 C 26.390625 -37.875 27.40625 -42.328125 27.546875 -42.75 C 28.6875 -45.1875 36.4375 -60.25 50.78125 -60.25 C 57.09375 -60.25 58.53125 -55.09375 58.53125 -50.359375 C 58.53125 -41.46875 51.9375 -23.953125 49.359375 -17.359375 C 48.5 -15.0625 47.78125 -13.0625 47.78125 -10.328125 C 47.78125 -2.875 53.078125 1.578125 59.546875 1.578125 C 73.3125 1.578125 78.328125 -19.65625 78.328125 -20.515625 C 78.328125 -21.953125 77.046875 -21.953125 76.609375 -21.953125 C 75.171875 -21.953125 75.171875 -21.515625 74.453125 -19.375 C 70.296875 -4.734375 63.84375 -1.578125 59.96875 -1.578125 C 57.25 -1.578125 56.390625 -3.296875 56.390625 -6.3125 C 56.390625 -9.90625 57.96875 -13.921875 58.828125 -16.359375 C 61.265625 -22.671875 67.71875 -39.890625 67.71875 -47.921875 C 67.71875 -58.390625 61.125 -63.40625 51.21875 -63.40625 C 46.765625 -63.40625 38.15625 -62.40625 29.984375 -52.515625 Z M 36.578125 -78.90625 "/>
</g>
<g id="glyph-5-0">
<path d="M 39.171875 -33.421875 C 39.890625 -35.15625 39.890625 -35.4375 39.890625 -35.875 C 39.890625 -36.296875 39.890625 -36.578125 39.171875 -38.3125 L 14.0625 -104.296875 C 13.203125 -106.734375 12.34375 -107.609375 10.765625 -107.609375 C 9.1875 -107.609375 7.890625 -106.3125 7.890625 -104.734375 C 7.890625 -104.296875 7.890625 -104.015625 8.609375 -102.4375 L 34 -35.875 L 8.609375 30.421875 C 7.890625 32 7.890625 32.28125 7.890625 33 C 7.890625 34.578125 9.1875 35.875 10.765625 35.875 C 12.625 35.875 13.203125 34.4375 13.765625 33 Z M 39.171875 -33.421875 "/>
</g>
</g>
</defs>
<g fill="rgb(0%, 0%, 0%)" fill-opacity="1">
<use xlink:href="#glyph-0-0" x="-4.2032" y="107.787"/>
</g>
<g fill="rgb(0%, 0%, 0%)" fill-opacity="1">
<use xlink:href="#glyph-1-0" x="147.2632" y="107.787"/>
<use xlink:href="#glyph-1-1" x="226.999068" y="107.787"/>
</g>
<g fill="rgb(0%, 0%, 0%)" fill-opacity="1">
<use xlink:href="#glyph-2-0" x="399.28192" y="107.787"/>
</g>
<g fill="rgb(0%, 0%, 0%)" fill-opacity="1">
<use xlink:href="#glyph-3-0" x="466.17856" y="107.787"/>
</g>
<g fill="rgb(0%, 0%, 0%)" fill-opacity="1">
<use xlink:href="#glyph-4-0" x="529.68832" y="107.787"/>
</g>
<g fill="rgb(0%, 0%, 0%)" fill-opacity="1">
<use xlink:href="#glyph-5-0" x="607.20064" y="107.787"/>
</g>
</svg>
